<mxfile host="Electron" modified="2023-05-24T11:28:21.422Z" agent="Mozilla/5.0 (X11; Linux x86_64) AppleWebKit/537.36 (KHTML, like Gecko) draw.io/21.2.1 Chrome/112.0.5615.87 Electron/24.1.2 Safari/537.36" etag="Cblcd29GsDtFXXgGZq6d" version="21.2.1" type="device">
  <diagram name="Page-1" id="Vn31Phi38d548Jd6JGEV">
    <mxGraphModel dx="574" dy="377" grid="1" gridSize="10" guides="1" tooltips="1" connect="1" arrows="1" fold="1" page="1" pageScale="1" pageWidth="850" pageHeight="1100" math="0" shadow="0">
      <root>
        <mxCell id="0" />
        <mxCell id="1" parent="0" />
        <mxCell id="HSjvIxSosh0ikxAGgUQO-1" value="" style="rounded=1;whiteSpace=wrap;html=1;fillColor=#dae8fc;strokeColor=#6c8ebf;" parent="1" vertex="1">
          <mxGeometry x="50" y="30" width="190" height="250" as="geometry" />
        </mxCell>
        <mxCell id="HSjvIxSosh0ikxAGgUQO-3" value="" style="rounded=1;whiteSpace=wrap;html=1;fillColor=#fff2cc;strokeColor=#d6b656;" parent="1" vertex="1">
          <mxGeometry x="280" y="30" width="190" height="250" as="geometry" />
        </mxCell>
        <mxCell id="HSjvIxSosh0ikxAGgUQO-4" value="&lt;font style=&quot;font-size: 20px;&quot;&gt;Master Node&lt;/font&gt;" style="text;html=1;strokeColor=none;fillColor=none;align=center;verticalAlign=middle;whiteSpace=wrap;rounded=0;" parent="1" vertex="1">
          <mxGeometry x="82.5" width="125" height="30" as="geometry" />
        </mxCell>
        <mxCell id="HSjvIxSosh0ikxAGgUQO-5" value="&lt;font style=&quot;font-size: 20px;&quot;&gt;Server Nodes&lt;/font&gt;" style="text;html=1;strokeColor=none;fillColor=none;align=center;verticalAlign=middle;whiteSpace=wrap;rounded=0;" parent="1" vertex="1">
          <mxGeometry x="312.5" width="125" height="30" as="geometry" />
        </mxCell>
        <mxCell id="HSjvIxSosh0ikxAGgUQO-13" value="" style="edgeStyle=orthogonalEdgeStyle;rounded=0;orthogonalLoop=1;jettySize=auto;html=1;" parent="1" source="HSjvIxSosh0ikxAGgUQO-6" target="HSjvIxSosh0ikxAGgUQO-8" edge="1">
          <mxGeometry relative="1" as="geometry" />
        </mxCell>
        <mxCell id="HSjvIxSosh0ikxAGgUQO-6" value="&lt;font style=&quot;font-size: 12px;&quot;&gt;① Scan created server nodes&lt;/font&gt;" style="rounded=0;whiteSpace=wrap;html=1;align=left;" parent="1" vertex="1">
          <mxGeometry x="292.5" y="50" width="165" height="30" as="geometry" />
        </mxCell>
        <mxCell id="HSjvIxSosh0ikxAGgUQO-15" value="" style="edgeStyle=orthogonalEdgeStyle;rounded=0;orthogonalLoop=1;jettySize=auto;html=1;" parent="1" source="HSjvIxSosh0ikxAGgUQO-7" target="HSjvIxSosh0ikxAGgUQO-9" edge="1">
          <mxGeometry relative="1" as="geometry" />
        </mxCell>
        <mxCell id="HSjvIxSosh0ikxAGgUQO-7" value="&lt;font style=&quot;font-size: 12px;&quot;&gt;③ Scan created server nodes&lt;/font&gt;" style="rounded=0;whiteSpace=wrap;html=1;align=left;" parent="1" vertex="1">
          <mxGeometry x="62.5" y="180" width="165" height="30" as="geometry" />
        </mxCell>
        <mxCell id="HSjvIxSosh0ikxAGgUQO-14" style="edgeStyle=orthogonalEdgeStyle;rounded=0;orthogonalLoop=1;jettySize=auto;html=1;" parent="1" source="HSjvIxSosh0ikxAGgUQO-8" target="HSjvIxSosh0ikxAGgUQO-7" edge="1">
          <mxGeometry relative="1" as="geometry" />
        </mxCell>
        <mxCell id="HSjvIxSosh0ikxAGgUQO-8" value="&lt;font style=&quot;font-size: 12px;&quot;&gt;②&amp;nbsp;Create new node following the created server node list&amp;nbsp;&lt;/font&gt;" style="rounded=0;whiteSpace=wrap;html=1;align=left;" parent="1" vertex="1">
          <mxGeometry x="295" y="110" width="160" height="50" as="geometry" />
        </mxCell>
        <mxCell id="HSjvIxSosh0ikxAGgUQO-9" value="&lt;font style=&quot;font-size: 12px;&quot;&gt;④ Make server node list&lt;/font&gt;" style="rounded=0;whiteSpace=wrap;html=1;align=left;" parent="1" vertex="1">
          <mxGeometry x="65" y="230" width="160" height="30" as="geometry" />
        </mxCell>
        <mxCell id="HSjvIxSosh0ikxAGgUQO-10" value="" style="endArrow=classic;html=1;rounded=0;strokeWidth=5;fillColor=#f8cecc;strokeColor=#FF3333;" parent="1" edge="1">
          <mxGeometry width="50" height="50" relative="1" as="geometry">
            <mxPoint x="30" y="60" as="sourcePoint" />
            <mxPoint x="30" y="260" as="targetPoint" />
          </mxGeometry>
        </mxCell>
        <mxCell id="HSjvIxSosh0ikxAGgUQO-11" value="Time Series" style="text;html=1;strokeColor=none;fillColor=none;align=center;verticalAlign=middle;whiteSpace=wrap;rounded=0;" parent="1" vertex="1">
          <mxGeometry y="20" width="60" height="30" as="geometry" />
        </mxCell>
      </root>
    </mxGraphModel>
  </diagram>
</mxfile>
